<?xml version="1.0" encoding="UTF-8" standalone="no"?>
<!DOCTYPE svg PUBLIC "-//W3C//DTD SVG 1.1//EN" "http://www.w3.org/Graphics/SVG/1.1/DTD/svg11.dtd">
<svg width="100%" height="100%" viewBox="0 0 3125 2084" version="1.1" xmlns="http://www.w3.org/2000/svg" xmlns:xlink="http://www.w3.org/1999/xlink" xml:space="preserve" xmlns:serif="http://www.serif.com/" style="fill-rule:evenodd;clip-rule:evenodd;stroke-linecap:round;stroke-miterlimit:2;">
    <g transform="matrix(4.16667,0,0,4.16667,0,0)">
        <path d="M636.9,157.29L654.162,152.247" style="fill:none;stroke:rgb(69,29,85);stroke-width:2.5px;"/>
        <path d="M624.956,122.123L619.102,138.486" style="fill:none;stroke:rgb(69,29,85);stroke-width:2.5px;"/>
        <path d="M630.721,145.286L650.222,123.943" style="fill:none;stroke:rgb(69,29,85);stroke-width:2.5px;"/>
        <path d="M407.348,391.323L385.425,378.665L385.425,403.98L407.348,391.323Z" style="fill:rgb(69,29,85);fill-rule:nonzero;"/>
        <path d="M436.942,391.323L415.019,378.665L415.019,403.98L436.942,391.323Z" style="fill:rgb(69,29,85);fill-rule:nonzero;"/>
        <path d="M215.84,60.354L193.917,47.697L193.917,73.011L215.84,60.354Z" style="fill:rgb(69,29,85);fill-rule:nonzero;"/>
        <path d="M245.434,60.354L223.511,47.697L223.511,73.011L245.434,60.354Z" style="fill:rgb(69,29,85);fill-rule:nonzero;"/>
        <path d="M300.684,119.191L319.436,119.191" style="fill:none;stroke:rgb(69,29,85);stroke-width:2.5px;"/>
        <path d="M310.06,128.567L310.06,109.815" style="fill:none;stroke:rgb(69,29,85);stroke-width:2.5px;"/>
        <path d="M627.584,257.229L653.898,257.229" style="fill:none;stroke:rgb(69,29,85);stroke-width:2.5px;"/>
        <path d="M640.741,270.386L640.741,244.072" style="fill:none;stroke:rgb(69,29,85);stroke-width:2.5px;"/>
        <path d="M85.675,343.606L113.984,343.606" style="fill:none;stroke:rgb(69,29,85);stroke-width:2.5px;"/>
        <path d="M99.829,357.76L99.829,329.451" style="fill:none;stroke:rgb(69,29,85);stroke-width:2.5px;"/>
        <path d="M172.094,94.413L254.251,94.413" style="fill:none;stroke:rgb(124,179,66);stroke-width:3.5px;"/>
        <path d="M277.847,392.129L360.004,392.129" style="fill:none;stroke:rgb(124,179,66);stroke-width:3.5px;"/>
        <path d="M45.103,130.77L190.706,130.77" style="fill:none;stroke:rgb(69,29,85);stroke-width:2.5px;"/>
        <path d="M99.721,212.076L192.279,212.076" style="fill:none;stroke:rgb(254,212,37);stroke-width:3.5px;"/>
        <path d="M123.999,201.248L168.553,201.248" style="fill:none;stroke:rgb(69,29,85);stroke-width:2.5px;"/>
        <path d="M546.343,275.731L582.897,275.731" style="fill:none;stroke:rgb(69,29,85);stroke-width:2.5px;"/>
        <path d="M520.932,239.783L559.415,150.847C559.415,150.442 559.415,150.24 559.415,150.269L208.244,150.269L169.512,239.783L520.932,239.783Z" style="fill:rgb(254,212,37);fill-rule:nonzero;"/>
        <path d="M538.329,287.409C535.614,285.259 533.305,282.582 531.746,279.479C530.243,276.492 529.464,273.211 529.258,269.882C528.935,264.662 529.878,259.435 531.439,254.415L203.375,254.415L164.643,359.422L512.063,359.422L540.698,289.101C539.885,288.571 539.09,288.013 538.329,287.409Z" style="fill:rgb(124,179,66);fill-rule:nonzero;"/>
        <path d="M143.799,176.305L212.434,176.305" style="fill:none;stroke:rgb(254,212,37);stroke-width:2.5px;"/>
        <path d="M539.619,156.872C539.619,156.467 539.619,156.264 539.619,156.294L188.447,156.294L149.715,245.808L188.447,245.808L149.715,350.815L501.136,350.815L539.619,246.486L539.619,245.808" style="fill:none;stroke:rgb(69,29,85);stroke-width:2.5px;stroke-linecap:butt;"/>
        <path d="M251.087,186.879C255.92,186.879 257.919,188.665 259.757,188.665C260.335,188.665 261.91,188.14 262.697,186.879L263.852,186.879L258.432,198.804L257.224,198.804C258.739,193.025 256.764,188.98 250.617,188.98C247.886,188.98 237.67,190.293 230.336,205.002C224.784,216.139 228.468,220.867 235.244,220.867C240.025,220.867 244.907,218.871 249.841,215.509L250.289,216.507C244.464,221.025 237.953,223.126 232.752,223.126C223.349,223.126 218.114,217.295 224.19,205.107C230.162,193.13 242.262,186.879 251.087,186.879Z" style="fill:white;fill-rule:nonzero;"/>
        <path d="M296.79,186.879C305.667,186.879 310.72,193.393 304.931,205.002C299.038,216.822 287.595,223.126 278.77,223.126C270.26,223.126 264.499,217.19 270.576,205.002C276.862,192.395 288.857,186.879 296.79,186.879ZM295.82,188.823C289.569,188.823 281.933,194.233 276.564,205.002C271.326,215.509 273.015,221.287 279.687,221.287C285.991,221.287 293.469,215.877 298.89,205.002C304.39,193.971 301.809,188.823 295.82,188.823Z" style="fill:white;fill-rule:nonzero;"/>
        <path d="M328.571,187.614L338.973,187.614L337.802,214.196L362.717,187.614L373.224,187.614L372.726,188.612C369.285,188.77 367.71,189.506 366.06,192.815L353.934,217.137C352.127,220.762 353.335,221.287 356.356,221.445L355.885,222.39L341.071,222.39L341.542,221.445C345.456,221.287 346.899,220.394 348.68,216.822L360.833,192.447L360.728,192.447L332.456,222.39L331.72,222.39L332.993,193.708L332.888,193.708L322.018,215.509C319.373,220.815 321.186,221.287 323.997,221.445L323.525,222.39L311.18,222.39L311.652,221.445C316.563,221.287 317.978,218.976 320.205,214.511L330.969,192.92C332.986,188.875 331.095,188.875 328.074,188.612L328.571,187.614Z" style="fill:white;fill-rule:nonzero;"/>
        <path d="M384.728,187.614L400.33,187.614L399.832,188.612C395.919,188.77 394.422,189.138 392.327,193.34L380.41,217.242C378.655,220.762 379.89,221.445 383.462,221.445L382.991,222.39L367.389,222.39L367.86,221.445C371.721,221.287 373.244,220.762 374.999,217.242L386.916,193.34C388.88,189.4 388.354,188.875 384.23,188.612L384.728,187.614Z" style="fill:white;fill-rule:nonzero;"/>
        <path d="M404.479,187.614L413.462,187.614L421.01,212.83L421.115,212.83L429.837,195.337C432.849,189.295 431.587,188.875 428.146,188.612L428.644,187.614L440.989,187.614L440.491,188.612C437.024,188.928 435.265,189.19 432.2,195.337L418.424,222.968L417.478,222.968L408.691,194.023L398.266,214.931C395.804,219.869 396.174,221.235 399.957,221.445L399.485,222.39L387.14,222.39L387.612,221.445C391.972,221.235 393.545,219.764 395.981,214.878L407.636,191.502C407.636,191.502 407.187,189.558 406.241,189.033C405.584,188.665 404.769,188.612 403.981,188.612L404.479,187.614Z" style="fill:white;fill-rule:nonzero;"/>
        <path d="M482.143,203.899L481.724,204.74C478.467,204.845 477.287,206.158 476.056,208.627L470.687,219.396C470.268,220.237 461.736,223.126 456.01,223.126C452.385,223.126 445.056,222.338 443.549,215.877C442.941,212.987 443.698,209.678 446.16,204.74C451.136,194.759 462.63,186.879 473.031,186.879C478.232,186.879 479.968,188.665 481.544,188.665C482.857,188.665 484.484,187.614 484.851,186.879L485.954,186.879L480.874,198.016L479.666,198.016C480.367,192.5 478.708,188.98 472.771,188.98C467.728,188.98 458.33,192.342 451.703,205.633C446.937,215.194 449.545,221.025 457.583,221.025C461.68,221.025 465.46,219.659 466.246,218.083L470.804,208.942C472.637,205.265 471.717,205.002 468.224,204.74L468.643,203.899L482.143,203.899Z" style="fill:white;fill-rule:nonzero;"/>
        <path d="M246.087,186.879C250.92,186.879 252.919,188.665 254.757,188.665C255.335,188.665 256.91,188.14 257.697,186.879L258.852,186.879L253.432,198.804L252.224,198.804C253.739,193.025 251.764,188.98 245.617,188.98C242.886,188.98 232.67,190.293 225.336,205.002C219.784,216.139 223.468,220.867 230.244,220.867C235.025,220.867 239.907,218.871 244.841,215.509L245.289,216.507C239.464,221.025 232.953,223.126 227.752,223.126C218.349,223.126 213.114,217.295 219.19,205.107C225.162,193.13 237.262,186.879 246.087,186.879Z" style="fill:rgb(69,29,85);fill-rule:nonzero;"/>
        <path d="M291.79,186.879C300.667,186.879 305.72,193.393 299.931,205.002C294.038,216.822 282.595,223.126 273.77,223.126C265.26,223.126 259.499,217.19 265.576,205.002C271.862,192.395 283.857,186.879 291.79,186.879ZM290.82,188.823C284.569,188.823 276.933,194.233 271.564,205.002C266.326,215.509 268.015,221.287 274.687,221.287C280.991,221.287 288.469,215.877 293.89,205.002C299.39,193.971 296.809,188.823 290.82,188.823Z" style="fill:rgb(69,29,85);fill-rule:nonzero;"/>
        <path d="M323.571,187.614L333.973,187.614L332.802,214.196L357.717,187.614L368.224,187.614L367.726,188.612C364.285,188.77 362.71,189.506 361.06,192.815L348.934,217.137C347.127,220.762 348.335,221.287 351.356,221.445L350.885,222.39L336.071,222.39L336.542,221.445C340.456,221.287 341.899,220.394 343.68,216.822L355.833,192.447L355.728,192.447L327.456,222.39L326.72,222.39L327.993,193.708L327.888,193.708L317.018,215.509C314.373,220.815 316.186,221.287 318.997,221.445L318.525,222.39L306.18,222.39L306.652,221.445C311.563,221.287 312.978,218.976 315.205,214.511L325.969,192.92C327.986,188.875 326.095,188.875 323.074,188.612L323.571,187.614Z" style="fill:rgb(69,29,85);fill-rule:nonzero;"/>
        <path d="M379.728,187.614L395.33,187.614L394.832,188.612C390.919,188.77 389.422,189.138 387.327,193.34L375.41,217.242C373.655,220.762 374.89,221.445 378.462,221.445L377.991,222.39L362.389,222.39L362.86,221.445C366.721,221.287 368.244,220.762 369.999,217.242L381.916,193.34C383.88,189.4 383.354,188.875 379.23,188.612L379.728,187.614Z" style="fill:rgb(69,29,85);fill-rule:nonzero;"/>
        <path d="M399.479,187.614L408.462,187.614L416.01,212.83L416.115,212.83L424.837,195.337C427.849,189.295 426.587,188.875 423.146,188.612L423.644,187.614L435.989,187.614L435.491,188.612C432.024,188.928 430.265,189.19 427.2,195.337L413.424,222.968L412.478,222.968L403.691,194.023L393.266,214.931C390.804,219.869 391.174,221.235 394.957,221.445L394.485,222.39L382.14,222.39L382.612,221.445C386.972,221.235 388.545,219.764 390.981,214.878L402.636,191.502C402.636,191.502 402.187,189.558 401.241,189.033C400.584,188.665 399.769,188.612 398.981,188.612L399.479,187.614Z" style="fill:rgb(69,29,85);fill-rule:nonzero;"/>
        <path d="M477.143,203.899L476.724,204.74C473.467,204.845 472.287,206.158 471.056,208.627L465.687,219.396C465.268,220.237 456.736,223.126 451.01,223.126C447.385,223.126 440.056,222.338 438.549,215.877C437.941,212.987 438.698,209.678 441.16,204.74C446.136,194.759 457.63,186.879 468.031,186.879C473.232,186.879 474.968,188.665 476.544,188.665C477.857,188.665 479.484,187.614 479.851,186.879L480.954,186.879L475.874,198.016L474.666,198.016C475.367,192.5 473.708,188.98 467.771,188.98C462.728,188.98 453.33,192.342 446.703,205.633C441.937,215.194 444.545,221.025 452.583,221.025C456.68,221.025 460.46,219.659 461.246,218.083L465.804,208.942C467.637,205.265 466.717,205.002 463.224,204.74L463.643,203.899L477.143,203.899Z" style="fill:rgb(69,29,85);fill-rule:nonzero;"/>
        <path d="M249.067,280.797C253.387,280.797 255.382,283.16 257.34,283.16C259.095,283.16 260.106,281.944 260.881,280.797L262.299,280.797L256.581,295.244L254.893,295.244C256.539,289.506 255.079,283.632 248.26,283.632C244.345,283.632 240.129,285.995 238.21,289.843C236.594,293.084 237.712,295.447 239.672,297.472C242.275,299.97 243.221,300.375 246.128,303.21C248.021,305.101 251.368,308.814 248.17,315.228C245.679,320.223 238.128,327.38 227.867,327.38C222.398,327.38 220.606,325.152 218.581,325.152C216.96,325.152 215.882,326.367 215.377,327.38L213.824,327.38L218.901,313.135L220.386,313.135C219.721,319.751 221.078,325.017 228.234,325.017C232.96,325.017 237.851,321.979 240.139,317.388C241.553,314.552 242.191,311.784 237.391,307.599L232.491,303.346C229.786,300.375 228.668,297.607 231.327,292.274C234.693,285.522 242.18,280.797 249.067,280.797Z" style="fill:rgb(69,29,85);fill-rule:nonzero;"/>
        <path d="M294.097,280.797C305.506,280.797 311.999,289.168 304.56,304.088C296.987,319.278 282.281,327.38 270.939,327.38C260.002,327.38 252.599,319.751 260.408,304.088C268.486,287.885 283.903,280.797 294.097,280.797ZM292.851,283.295C284.818,283.295 275.004,290.248 268.104,304.088C261.372,317.59 263.543,325.017 272.117,325.017C280.218,325.017 289.829,318.063 296.797,304.088C303.865,289.911 300.548,283.295 292.851,283.295Z" style="fill:rgb(69,29,85);fill-rule:nonzero;"/>
        <path d="M342.84,280.797C354.25,280.797 360.743,289.168 353.304,304.088C345.73,319.278 331.024,327.38 319.682,327.38C308.745,327.38 301.342,319.751 309.151,304.088C317.23,287.885 332.646,280.797 342.84,280.797ZM341.595,283.295C333.561,283.295 323.748,290.248 316.848,304.088C310.116,317.59 312.286,325.017 320.86,325.017C328.962,325.017 338.572,318.063 345.54,304.088C352.609,289.911 349.291,283.295 341.595,283.295Z" style="fill:rgb(69,29,85);fill-rule:nonzero;"/>
        <g transform="matrix(1,0,0,1,-53.6215,0)">
            <path d="M419.803,281.742L431.347,281.742L441.047,314.147L441.182,314.147L452.391,291.666C456.262,283.902 454.641,283.362 450.218,283.025L450.858,281.742L466.723,281.742L466.084,283.025C461.628,283.43 459.367,283.767 455.429,291.666L437.724,327.177L436.509,327.177L425.215,289.978L411.819,316.848C408.654,323.194 409.13,324.949 413.991,325.219L413.385,326.434L397.52,326.434L398.126,325.219C403.729,324.949 405.751,323.059 408.882,316.78L423.86,286.738C423.86,286.738 423.283,284.24 422.067,283.565C421.222,283.092 420.176,283.025 419.163,283.025L419.803,281.742Z" style="fill:rgb(69,29,85);fill-rule:nonzero;"/>
        </g>
        <path d="M242.067,280.797C246.387,280.797 248.382,283.16 250.34,283.16C252.095,283.16 253.106,281.944 253.881,280.797L255.299,280.797L249.581,295.244L247.893,295.244C249.539,289.506 248.079,283.632 241.26,283.632C237.345,283.632 233.129,285.995 231.21,289.843C229.594,293.084 230.712,295.447 232.672,297.472C235.275,299.97 236.221,300.375 239.128,303.21C241.021,305.101 244.368,308.814 241.17,315.228C238.679,320.223 231.128,327.38 220.867,327.38C215.398,327.38 213.606,325.152 211.581,325.152C209.96,325.152 208.882,326.367 208.377,327.38L206.824,327.38L211.901,313.135L213.386,313.135C212.721,319.751 214.078,325.017 221.234,325.017C225.96,325.017 230.851,321.979 233.139,317.388C234.553,314.552 235.191,311.784 230.391,307.599L225.491,303.346C222.786,300.375 221.668,297.607 224.327,292.274C227.693,285.522 235.18,280.797 242.067,280.797Z" style="fill:white;fill-rule:nonzero;"/>
        <path d="M287.097,280.797C298.506,280.797 304.999,289.168 297.56,304.088C289.987,319.278 275.281,327.38 263.939,327.38C253.002,327.38 245.599,319.751 253.408,304.088C261.486,287.885 276.903,280.797 287.097,280.797ZM285.851,283.295C277.818,283.295 268.004,290.248 261.104,304.088C254.372,317.59 256.543,325.017 265.117,325.017C273.218,325.017 282.829,318.063 289.797,304.088C296.865,289.911 293.548,283.295 285.851,283.295Z" style="fill:white;fill-rule:nonzero;"/>
        <path d="M335.84,280.797C347.25,280.797 353.743,289.168 346.304,304.088C338.73,319.278 324.024,327.38 312.682,327.38C301.745,327.38 294.342,319.751 302.151,304.088C310.23,287.885 325.646,280.797 335.84,280.797ZM334.595,283.295C326.561,283.295 316.748,290.248 309.848,304.088C303.116,317.59 305.286,325.017 313.86,325.017C321.962,325.017 331.572,318.063 338.54,304.088C345.609,289.911 342.291,283.295 334.595,283.295Z" style="fill:white;fill-rule:nonzero;"/>
        <g transform="matrix(1,0,0,1,-53.6215,0)">
            <path d="M412.803,281.742L424.347,281.742L434.047,314.147L434.182,314.147L445.391,291.666C449.262,283.902 447.641,283.362 443.218,283.025L443.858,281.742L459.723,281.742L459.084,283.025C454.628,283.43 452.367,283.767 448.429,291.666L430.724,327.177L429.509,327.177L418.215,289.978L404.819,316.848C401.654,323.194 402.13,324.949 406.991,325.219L406.385,326.434L390.52,326.434L391.126,325.219C396.729,324.949 398.751,323.059 401.882,316.78L416.86,286.738C416.86,286.738 416.283,284.24 415.067,283.565C414.222,283.092 413.176,283.025 412.163,283.025L412.803,281.742Z" style="fill:white;fill-rule:nonzero;"/>
        </g>
        <path d="M543.455,303.834L616.251,303.834" style="fill:none;stroke:rgb(124,179,66);stroke-width:3.5px;"/>
        <path d="M537.928,333.601L677.291,333.601" style="fill:none;stroke:rgb(124,179,66);stroke-width:3.5px;"/>
        <path d="M387.632,137.68L461.468,137.68" style="fill:none;stroke:rgb(254,212,37);stroke-width:3.5px;"/>
        <path d="M559.544,368.415C559.544,368.415 575.8,335.377 569.762,307.384C564.983,285.224 532.43,272.7 534.242,260.796C536.215,247.819 575.847,243.251 585.425,226.648C593.655,212.382 593.6,171.711 593.6,171.711L499.082,156.291C499.082,156.291 486.104,194.836 489.374,210.979C493.178,229.764 529.303,246.691 527.051,259.623C524.985,271.485 490.14,273.015 478.566,292.507C463.944,317.13 468.858,353.621 468.858,353.621L559.544,368.415Z" style="fill:white;fill-rule:nonzero;"/>
        <path d="M546.309,173.701C546.309,173.701 571.241,190.185 579.276,219.855C588.341,204.196 585.458,180.089 585.458,180.089L546.309,173.701Z" style="fill:rgb(254,212,37);fill-rule:nonzero;"/>
        <path d="M566.44,369.358L534.943,364.219L493.517,357.461L462.02,352.323C454.346,351.072 447.11,356.278 445.858,363.951L444.874,369.988L490.265,377.393L531.691,384.151L577.084,391.556L578.068,385.519C579.32,377.845 574.114,370.61 566.44,369.358Z" style="fill:rgb(255,244,212);fill-rule:nonzero;"/>
        <path d="M576.281,153.424L534.856,146.666L489.464,139.261L488.478,145.298C487.227,152.972 492.433,160.207 500.107,161.459L531.604,166.598L573.03,173.356L604.527,178.494C612.201,179.746 619.436,174.54 620.688,166.866L621.673,160.829L576.281,153.424Z" style="fill:rgb(124,179,66);fill-rule:nonzero;"/>
        <path d="M572.416,375.333L540.919,370.195L499.493,363.437L467.996,358.298C460.322,357.047 453.086,362.253 451.834,369.927L450.849,375.963L496.241,383.368L537.667,390.126L583.059,397.532L584.044,391.494C585.296,383.821 580.089,376.585 572.416,375.333Z" style="fill:rgb(124,179,66);fill-rule:nonzero;"/>
        <path d="M570.305,147.449L528.88,140.69L483.488,133.285L482.503,139.323C481.252,146.996 486.458,154.232 494.131,155.484L525.629,160.622L567.054,167.38L598.551,172.518C606.225,173.77 613.461,168.564 614.713,160.89L615.698,154.853L570.305,147.449Z" style="fill:none;stroke:rgb(69,29,85);stroke-width:2.5px;stroke-linecap:butt;"/>
        <path d="M566.44,369.358L534.943,364.219L493.517,357.461L462.02,352.323C454.346,351.072 447.11,356.278 445.858,363.951L444.874,369.988L490.265,377.393L531.691,384.151L577.084,391.556L578.068,385.519C579.32,377.845 574.114,370.61 566.44,369.358Z" style="fill:none;stroke:rgb(69,29,85);stroke-width:2.5px;stroke-linecap:butt;"/>
        <path d="M499.082,156.291C499.082,156.291 486.104,194.836 489.374,210.979C493.178,229.764 529.303,246.691 527.051,259.623C524.985,271.485 490.14,273.015 478.566,292.507C463.944,317.13 468.858,353.621 468.858,353.621" style="fill:none;stroke:rgb(69,29,85);stroke-width:3.3px;stroke-linecap:butt;"/>
        <path d="M593.6,171.711C593.6,171.711 593.655,212.382 585.425,226.648C575.847,243.251 536.215,247.819 534.242,260.796C532.43,272.7 564.983,285.224 569.762,307.384C575.8,335.377 559.544,368.415 559.544,368.415" style="fill:none;stroke:rgb(69,29,85);stroke-width:3.3px;stroke-linecap:butt;"/>
        <path d="M497.217,209.469C496.729,209.721 496.566,210.335 496.862,210.799C498.433,213.263 503.372,220.695 510.182,227.949C517.943,236.215 527.976,243.969 533.524,244.873C548.472,247.312 578.277,225.023 578.781,223.138C558.53,229.081 551.47,226.929 532.745,210.249C519.891,198.8 501.45,207.275 497.217,209.469Z" style="fill:rgb(69,29,85);fill-rule:nonzero;"/>
        <path d="M555.106,362.707C553.762,349.641 547.721,310.61 523.279,306.621C499.068,302.672 480.736,337.284 475.012,349.641L555.106,362.707Z" style="fill:rgb(69,29,85);fill-rule:nonzero;"/>
        <path d="M540.185,300.723C539.754,303.369 537.258,305.164 534.613,304.733C531.966,304.301 530.172,301.806 530.603,299.159C531.035,296.513 533.53,294.718 536.175,295.15C538.822,295.581 540.617,298.076 540.185,300.723Z" style="fill:rgb(69,29,85);fill-rule:nonzero;"/>
        <path d="M521.151,289.551C520.823,291.562 518.927,292.926 516.917,292.598C514.906,292.271 513.542,290.374 513.87,288.363C514.198,286.352 516.094,284.988 518.104,285.316C520.116,285.644 521.479,287.54 521.151,289.551Z" style="fill:rgb(69,29,85);fill-rule:nonzero;"/>
        <path d="M532.951,276.326C532.692,277.913 531.195,278.991 529.607,278.732C528.019,278.473 526.942,276.976 527.201,275.388C527.461,273.8 528.958,272.723 530.545,272.982C532.132,273.242 533.21,274.739 532.951,276.326Z" style="fill:rgb(69,29,85);fill-rule:nonzero;"/>
        <path d="M542.876,284.414C542.876,284.414 558.397,291.695 563.205,308.727C567.218,322.948 563.617,333.315 563.617,333.315C563.617,333.315 559.199,315.146 557.024,309.551C551.255,294.716 542.876,284.414 542.876,284.414Z" style="fill:rgb(254,212,37);fill-rule:nonzero;"/>
        <path d="M40.153,404.609L141.031,404.609" style="fill:none;stroke:rgb(254,212,37);stroke-width:3.5px;"/>
        <path d="M473.454,448.076L661.7,448.076" style="fill:none;stroke:rgb(69,29,85);stroke-width:2.5px;"/>
        <path d="M189.341,389.485C189.104,391.77 187.059,393.43 184.774,393.193C182.488,392.955 180.828,390.91 181.065,388.625C181.302,386.34 183.347,384.68 185.633,384.917C187.918,385.155 189.578,387.2 189.341,389.485Z" style="fill:white;fill-rule:nonzero;"/>
        <path d="M189.341,389.485C189.104,391.77 187.059,393.43 184.774,393.193C182.488,392.955 180.828,390.91 181.065,388.625C181.302,386.34 183.347,384.68 185.633,384.917C187.918,385.155 189.578,387.2 189.341,389.485Z" style="fill:none;stroke:rgb(69,29,85);stroke-width:2.5px;stroke-linecap:butt;"/>
        <path d="M143.808,61.539C143.571,63.824 141.526,65.484 139.24,65.247C136.955,65.01 135.295,62.965 135.532,60.679C135.77,58.394 137.815,56.734 140.1,56.971C142.385,57.208 144.045,59.253 143.808,61.539Z" style="fill:white;fill-rule:nonzero;"/>
        <path d="M143.808,61.539C143.571,63.824 141.526,65.484 139.24,65.247C136.955,65.01 135.295,62.965 135.532,60.679C135.77,58.394 137.815,56.734 140.1,56.971C142.385,57.208 144.045,59.253 143.808,61.539Z" style="fill:none;stroke:rgb(69,29,85);stroke-width:2.5px;stroke-linecap:butt;"/>
        <path d="M662.705,400.641C662.467,402.927 660.422,404.587 658.137,404.35C655.852,404.113 654.192,402.068 654.428,399.783C654.666,397.496 656.711,395.836 658.997,396.074C661.282,396.311 662.942,398.356 662.705,400.641Z" style="fill:white;fill-rule:nonzero;"/>
        <path d="M662.705,400.641C662.467,402.927 660.422,404.587 658.137,404.35C655.852,404.113 654.192,402.068 654.428,399.783C654.666,397.496 656.711,395.836 658.997,396.074C661.282,396.311 662.942,398.356 662.705,400.641Z" style="fill:none;stroke:rgb(69,29,85);stroke-width:2.5px;stroke-linecap:butt;"/>
        <path d="M552.779,90.163C552.779,92.46 550.917,94.323 548.619,94.323C546.322,94.323 544.459,92.46 544.459,90.163C544.459,87.865 546.322,86.003 548.619,86.003C550.917,86.003 552.779,87.865 552.779,90.163Z" style="fill:white;fill-rule:nonzero;"/>
        <path d="M552.779,90.163C552.779,92.46 550.917,94.323 548.619,94.323C546.322,94.323 544.459,92.46 544.459,90.163C544.459,87.865 546.322,86.003 548.619,86.003C550.917,86.003 552.779,87.865 552.779,90.163Z" style="fill:none;stroke:rgb(69,29,85);stroke-width:2.5px;stroke-linecap:butt;"/>
        <path d="M210.429,439.951C210.087,443.247 207.137,445.642 203.841,445.3C200.545,444.958 198.151,442.008 198.493,438.712C198.835,435.416 201.784,433.022 205.08,433.365C208.377,433.706 210.771,436.656 210.429,439.951Z" style="fill:white;fill-rule:nonzero;"/>
        <path d="M210.429,439.951C210.087,443.247 207.137,445.642 203.841,445.3C200.545,444.958 198.151,442.008 198.493,438.712C198.835,435.416 201.784,433.022 205.08,433.365C208.377,433.706 210.771,436.656 210.429,439.951Z" style="fill:none;stroke:rgb(69,29,85);stroke-width:2.5px;stroke-linecap:butt;"/>
        <path d="M153.739,281.951C153.739,284.922 151.331,287.331 148.36,287.331C145.389,287.331 142.98,284.922 142.98,281.951C142.98,278.981 145.389,276.573 148.36,276.573C151.331,276.573 153.739,278.981 153.739,281.951Z" style="fill:rgb(254,212,37);fill-rule:nonzero;"/>
        <path d="M636.635,363.882C636.635,367.27 633.89,370.015 630.503,370.015C627.116,370.015 624.371,367.27 624.371,363.882C624.371,360.495 627.116,357.75 630.503,357.75C633.89,357.75 636.635,360.495 636.635,363.882Z" style="fill:rgb(124,179,66);fill-rule:nonzero;"/>
        <path d="M510.945,106.902C510.945,111.234 507.433,114.747 503.1,114.747C498.767,114.747 495.255,111.234 495.255,106.902C495.255,102.569 498.767,99.057 503.1,99.057C507.433,99.057 510.945,102.569 510.945,106.902Z" style="fill:white;fill-rule:nonzero;"/>
        <path d="M510.945,106.902C510.945,111.234 507.433,114.747 503.1,114.747C498.767,114.747 495.255,111.234 495.255,106.902C495.255,102.569 498.767,99.057 503.1,99.057C507.433,99.057 510.945,102.569 510.945,106.902Z" style="fill:none;stroke:rgb(69,29,85);stroke-width:2.5px;stroke-linecap:butt;"/>
        <path d="M149.838,430.992C149.541,433.848 146.985,435.924 144.129,435.627C141.272,435.33 139.196,432.775 139.493,429.918C139.79,427.061 142.346,424.986 145.202,425.283C148.059,425.579 150.134,428.135 149.838,430.992Z" style="fill:white;fill-rule:nonzero;"/>
        <path d="M149.838,430.992C149.541,433.848 146.985,435.924 144.129,435.627C141.272,435.33 139.196,432.775 139.493,429.918C139.79,427.061 142.346,424.986 145.202,425.283C148.059,425.579 150.134,428.135 149.838,430.992Z" style="fill:none;stroke:rgb(69,29,85);stroke-width:2.5px;stroke-linecap:butt;"/>
        <path d="M116.638,169.398L110.572,163.331L116.638,157.265L122.705,163.331L116.638,169.398Z" style="fill:rgb(124,179,66);fill-rule:nonzero;"/>
        <path d="M64.5,275.781L60.257,271.537L64.5,267.295L68.743,271.537L64.5,275.781Z" style="fill:rgb(124,179,66);fill-rule:nonzero;"/>
        <path d="M243.532,419.436L239.29,415.193L243.532,410.951L247.775,415.193L243.532,419.436Z" style="fill:rgb(254,212,37);fill-rule:nonzero;"/>
        <path d="M673.98,218.573L669.737,214.33L673.98,210.087L678.222,214.33L673.98,218.573Z" style="fill:rgb(124,179,66);fill-rule:nonzero;"/>
        <path d="M606.842,420.845L600.776,414.78L606.842,408.713L612.909,414.78L606.842,420.845Z" style="fill:rgb(254,212,37);fill-rule:nonzero;"/>
        <path d="M559.397,130.294L553.331,124.227L559.397,118.161L565.464,124.227L559.397,130.294Z" style="fill:rgb(254,212,37);fill-rule:nonzero;"/>
    </g>
</svg>
